<svg width="295" height="37" fill="none" xmlns="http://www.w3.org/2000/svg"><path d="M12.66 29.24c3.27 0 6.09-1.14 8.01-3.3l-1.95-1.89c-1.62 1.71-3.6 2.52-5.91 2.52-4.74 0-8.25-3.42-8.25-8.07s3.51-8.07 8.25-8.07c2.31 0 4.29.78 5.91 2.49l1.95-1.89c-1.92-2.16-4.74-3.27-7.98-3.27-6.39 0-11.13 4.53-11.13 10.74s4.74 10.74 11.1 10.74zM39.953 13.1l-6.42 10.74-6.24-10.74h-2.97V29h2.64V17.36l5.88 9.84h1.26l5.94-9.81V29h2.61V13.1h-2.7zM55.07 29.18c4.77 0 8.25-3.39 8.25-8.13s-3.48-8.1-8.25-8.1-8.28 3.36-8.28 8.1 3.51 8.13 8.28 8.13zm0-2.52c-3.06 0-5.37-2.22-5.37-5.61s2.31-5.58 5.37-5.58 5.34 2.19 5.34 5.58-2.28 5.61-5.34 5.61zM78.742 13.1h-14.52v2.52h5.82V29h2.88V15.62h5.82V13.1zm11.374-.15c-2.34 0-4.38.9-5.67 2.67V13.1h-2.76v21.72h2.88V26.6c1.32 1.71 3.3 2.58 5.55 2.58 4.65 0 8.04-3.24 8.04-8.13 0-4.86-3.39-8.1-8.04-8.1zm-.24 13.71c-3.03 0-5.34-2.22-5.34-5.61 0-3.36 2.31-5.58 5.34-5.58 3.06 0 5.37 2.22 5.37 5.58 0 3.39-2.31 5.61-5.37 5.61zm26.835-5.52c0-4.89-3.27-8.19-7.86-8.19s-7.98 3.39-7.98 8.1c0 4.74 3.42 8.13 8.55 8.13 2.64 0 4.83-.9 6.27-2.58l-1.59-1.86c-1.17 1.29-2.73 1.92-4.59 1.92-3.15 0-5.4-1.86-5.76-4.65h12.9c.03-.27.06-.63.06-.87zm-7.86-5.76c2.79 0 4.8 1.89 5.1 4.56h-10.2c.3-2.7 2.34-4.56 5.1-4.56zm23.504-2.28h-14.52v2.52h5.82V29h2.88V15.62h5.82V13.1zm10.295 5.4l-4.47-.03V13.1h-2.88V29l6.9.03c4.26.03 6.66-1.89 6.66-5.34 0-3.27-2.16-5.16-6.21-5.19zm-.69 8.34l-3.78-.03v-6.24l3.78.06c2.64.03 3.96.93 3.96 3.03 0 2.13-1.35 3.21-3.96 3.18zm33.022-5.7c0-4.89-3.27-8.19-7.86-8.19s-7.98 3.39-7.98 8.1c0 4.74 3.42 8.13 8.55 8.13 2.64 0 4.83-.9 6.27-2.58l-1.59-1.86c-1.17 1.29-2.73 1.92-4.59 1.92-3.15 0-5.4-1.86-5.76-4.65h12.9c.03-.27.06-.63.06-.87zm-7.86-5.76c2.79 0 4.8 1.89 5.1 4.56h-10.2c.3-2.7 2.34-4.56 5.1-4.56zm34.978 11.1V13.1h-2.88v13.38h-6.99V13.1h-2.88v13.38h-7.02V13.1h-2.88V29h22.32v3.39h2.7v-5.91h-2.37zm9.282-16.2c.84 0 1.53-.63 1.53-1.53s-.69-1.56-1.53-1.56c-.84 0-1.53.66-1.53 1.56s.69 1.53 1.53 1.53zm5.58 0c.84 0 1.53-.63 1.53-1.53s-.69-1.56-1.53-1.56c-.84 0-1.53.66-1.53 1.56s.69 1.53 1.53 1.53zm5.1 10.86c0-4.89-3.27-8.19-7.86-8.19s-7.98 3.39-7.98 8.1c0 4.74 3.42 8.13 8.55 8.13 2.64 0 4.83-.9 6.27-2.58l-1.59-1.86c-1.17 1.29-2.73 1.92-4.59 1.92-3.15 0-5.4-1.86-5.76-4.65h12.9c.03-.27.06-.63.06-.87zm-7.86-5.76c2.79 0 4.8 1.89 5.1 4.56h-10.2c.3-2.7 2.34-4.56 5.1-4.56zm80.505 4.327a1 1 0 000-1.414l-6.364-6.364a1 1 0 10-1.414 1.414L292.586 19l-5.657 5.657a1 1 0 101.414 1.414l6.364-6.364zM234 20h60v-2h-60v2z" fill="#533738"/></svg>